<svg width="140" height="17" viewBox="0 0 140 17" fill="none" xmlns="http://www.w3.org/2000/svg">
<path d="M0.796875 1.72266H5.24023C7.26497 1.72266 8.73307 2.01237 9.64453 2.5918C10.5625 3.16471 11.0215 4.07943 11.0215 5.33594C11.0215 6.1888 10.8197 6.88867 10.416 7.43555C10.0189 7.98242 9.48828 8.3112 8.82422 8.42188V8.51953C9.72917 8.72135 10.3802 9.09896 10.7773 9.65234C11.181 10.2057 11.3828 10.9414 11.3828 11.8594C11.3828 13.1615 10.9108 14.1771 9.9668 14.9062C9.0293 15.6354 7.75326 16 6.13867 16H0.796875V1.72266ZM3.82422 7.37695H5.58203C6.40234 7.37695 6.99479 7.25 7.35938 6.99609C7.73047 6.74219 7.91602 6.32227 7.91602 5.73633C7.91602 5.18945 7.71419 4.79883 7.31055 4.56445C6.91341 4.32357 6.2819 4.20312 5.41602 4.20312H3.82422V7.37695ZM3.82422 9.7793V13.5H5.79688C6.63021 13.5 7.24544 13.3405 7.64258 13.0215C8.03971 12.7025 8.23828 12.2142 8.23828 11.5566C8.23828 10.3717 7.39193 9.7793 5.69922 9.7793H3.82422ZM13.873 2.25977C13.873 1.28971 14.4134 0.804688 15.4941 0.804688C16.5749 0.804688 17.1152 1.28971 17.1152 2.25977C17.1152 2.72201 16.9785 3.08333 16.7051 3.34375C16.4382 3.59766 16.0345 3.72461 15.4941 3.72461C14.4134 3.72461 13.873 3.23633 13.873 2.25977ZM16.9785 16H14V5.08203H16.9785V16ZM27.7109 16H19.0879V14.2422L24.1465 7.35742H19.3906V5.08203H27.5352V7.01562L22.6133 13.7246H27.7109V16ZM34.9473 2.25977C34.9473 1.28971 35.4876 0.804688 36.5684 0.804688C37.6491 0.804688 38.1895 1.28971 38.1895 2.25977C38.1895 2.72201 38.0527 3.08333 37.7793 3.34375C37.5124 3.59766 37.1087 3.72461 36.5684 3.72461C35.4876 3.72461 34.9473 3.23633 34.9473 2.25977ZM38.0527 16H35.0742V5.08203H38.0527V16ZM51.2656 16H48.2871V9.62305C48.2871 8.83529 48.1471 8.24609 47.8672 7.85547C47.5872 7.45833 47.1413 7.25977 46.5293 7.25977C45.696 7.25977 45.0938 7.53971 44.7227 8.09961C44.3516 8.65299 44.166 9.57422 44.166 10.8633V16H41.1875V5.08203H43.4629L43.8633 6.47852H44.0293C44.3613 5.95117 44.8171 5.55404 45.3965 5.28711C45.9824 5.01367 46.6465 4.87695 47.3887 4.87695C48.6582 4.87695 49.6217 5.22201 50.2793 5.91211C50.9368 6.5957 51.2656 7.58529 51.2656 8.88086V16ZM58.9316 13.8223C59.4525 13.8223 60.0775 13.7083 60.8066 13.4805V15.6973C60.0645 16.0293 59.153 16.1953 58.0723 16.1953C56.8809 16.1953 56.0117 15.8958 55.4648 15.2969C54.9245 14.6914 54.6543 13.7865 54.6543 12.582V7.31836H53.2285V6.05859L54.8691 5.0625L55.7285 2.75781H57.6328V5.08203H60.6895V7.31836H57.6328V12.582C57.6328 13.0052 57.75 13.3177 57.9844 13.5195C58.2253 13.7214 58.541 13.8223 58.9316 13.8223ZM67.5449 6.99609C66.9134 6.99609 66.4186 7.19792 66.0605 7.60156C65.7025 7.9987 65.4974 8.5651 65.4453 9.30078H69.625C69.612 8.5651 69.4199 7.9987 69.0488 7.60156C68.6777 7.19792 68.1764 6.99609 67.5449 6.99609ZM67.9648 16.1953C66.207 16.1953 64.8333 15.7103 63.8438 14.7402C62.8542 13.7702 62.3594 12.3965 62.3594 10.6191C62.3594 8.78971 62.8151 7.37695 63.7266 6.38086C64.6445 5.37826 65.9108 4.87695 67.5254 4.87695C69.0684 4.87695 70.2695 5.31641 71.1289 6.19531C71.9883 7.07422 72.418 8.28841 72.418 9.83789V11.2832H65.377C65.4095 12.1296 65.6602 12.7904 66.1289 13.2656C66.5977 13.7409 67.2552 13.9785 68.1016 13.9785C68.7591 13.9785 69.3809 13.9102 69.9668 13.7734C70.5527 13.6367 71.1647 13.4186 71.8027 13.1191V15.4238C71.2819 15.6842 70.7253 15.8763 70.1328 16C69.5404 16.1302 68.8177 16.1953 67.9648 16.1953ZM80.9336 4.87695C81.3372 4.87695 81.6725 4.90625 81.9395 4.96484L81.7148 7.75781C81.474 7.69271 81.181 7.66016 80.8359 7.66016C79.8854 7.66016 79.1432 7.9043 78.6094 8.39258C78.082 8.88086 77.8184 9.56445 77.8184 10.4434V16H74.8398V5.08203H77.0957L77.5352 6.91797H77.6816C78.0202 6.30599 78.4759 5.81445 79.0488 5.44336C79.6283 5.06576 80.2565 4.87695 80.9336 4.87695ZM94 16H91.0215V9.62305C91.0215 8.83529 90.8815 8.24609 90.6016 7.85547C90.3216 7.45833 89.8757 7.25977 89.2637 7.25977C88.4303 7.25977 87.8281 7.53971 87.457 8.09961C87.0859 8.65299 86.9004 9.57422 86.9004 10.8633V16H83.9219V5.08203H86.1973L86.5977 6.47852H86.7637C87.0957 5.95117 87.5514 5.55404 88.1309 5.28711C88.7168 5.01367 89.3809 4.87695 90.123 4.87695C91.3926 4.87695 92.3561 5.22201 93.0137 5.91211C93.6712 6.5957 94 7.58529 94 8.88086V16ZM101.588 6.99609C100.956 6.99609 100.462 7.19792 100.104 7.60156C99.7454 7.9987 99.5404 8.5651 99.4883 9.30078H103.668C103.655 8.5651 103.463 7.9987 103.092 7.60156C102.721 7.19792 102.219 6.99609 101.588 6.99609ZM102.008 16.1953C100.25 16.1953 98.8763 15.7103 97.8867 14.7402C96.8971 13.7702 96.4023 12.3965 96.4023 10.6191C96.4023 8.78971 96.8581 7.37695 97.7695 6.38086C98.6875 5.37826 99.9538 4.87695 101.568 4.87695C103.111 4.87695 104.312 5.31641 105.172 6.19531C106.031 7.07422 106.461 8.28841 106.461 9.83789V11.2832H99.4199C99.4525 12.1296 99.7031 12.7904 100.172 13.2656C100.641 13.7409 101.298 13.9785 102.145 13.9785C102.802 13.9785 103.424 13.9102 104.01 13.7734C104.596 13.6367 105.208 13.4186 105.846 13.1191V15.4238C105.325 15.6842 104.768 15.8763 104.176 16C103.583 16.1302 102.861 16.1953 102.008 16.1953ZM113.482 13.8223C114.003 13.8223 114.628 13.7083 115.357 13.4805V15.6973C114.615 16.0293 113.704 16.1953 112.623 16.1953C111.432 16.1953 110.562 15.8958 110.016 15.2969C109.475 14.6914 109.205 13.7865 109.205 12.582V7.31836H107.779V6.05859L109.42 5.0625L110.279 2.75781H112.184V5.08203H115.24V7.31836H112.184V12.582C112.184 13.0052 112.301 13.3177 112.535 13.5195C112.776 13.7214 113.092 13.8223 113.482 13.8223ZM121.031 16.1953C119.749 16.1953 118.74 15.6973 118.004 14.7012C117.275 13.7051 116.91 12.3249 116.91 10.5605C116.91 8.77018 117.281 7.37695 118.023 6.38086C118.772 5.37826 119.801 4.87695 121.109 4.87695C122.483 4.87695 123.531 5.41081 124.254 6.47852H124.352C124.202 5.66471 124.127 4.9388 124.127 4.30078V0.804688H127.115V16H124.83L124.254 14.584H124.127C123.45 15.6582 122.418 16.1953 121.031 16.1953ZM122.076 13.8223C122.838 13.8223 123.395 13.6009 123.746 13.1582C124.104 12.7155 124.299 11.9635 124.332 10.9023V10.5801C124.332 9.4082 124.15 8.56836 123.785 8.06055C123.427 7.55273 122.841 7.29883 122.027 7.29883C121.363 7.29883 120.846 7.58203 120.475 8.14844C120.11 8.70833 119.928 9.52539 119.928 10.5996C119.928 11.6738 120.113 12.4811 120.484 13.0215C120.855 13.5553 121.386 13.8223 122.076 13.8223ZM137.164 16L136.588 14.5156H136.51C136.008 15.1471 135.491 15.5866 134.957 15.834C134.43 16.0749 133.74 16.1953 132.887 16.1953C131.839 16.1953 131.012 15.8958 130.406 15.2969C129.807 14.6979 129.508 13.8451 129.508 12.7383C129.508 11.5794 129.911 10.7266 130.719 10.1797C131.533 9.6263 132.757 9.32031 134.391 9.26172L136.285 9.20312V8.72461C136.285 7.61784 135.719 7.06445 134.586 7.06445C133.714 7.06445 132.688 7.32812 131.51 7.85547L130.523 5.84375C131.78 5.1862 133.173 4.85742 134.703 4.85742C136.168 4.85742 137.291 5.17643 138.072 5.81445C138.854 6.45247 139.244 7.42253 139.244 8.72461V16H137.164ZM136.285 10.9414L135.133 10.9805C134.267 11.0065 133.622 11.1628 133.199 11.4492C132.776 11.7357 132.564 12.1719 132.564 12.7578C132.564 13.5977 133.046 14.0176 134.01 14.0176C134.7 14.0176 135.25 13.819 135.66 13.4219C136.077 13.0247 136.285 12.4974 136.285 11.8398V10.9414Z" fill="white"/>
</svg>
